{
  "accessors": [
    {
      "bufferView": 2,
      "componentType": 5126,
      "count": 1492,
      "max": [
        0.11936232447624207,
        0.010018428787589073,
        0.12086121737957001
      ],
      "min": [
        -0.11836397647857666,
        -0.010018428787589073,
        -0.1612880378961563
      ],
      "type": "VEC3"
    },
    {
      "bufferView": 2,
      "byteOffset": 17904,
      "componentType": 5126,
      "count": 1492,
      "max": [
        1.0,
        1.0,
        0.9999999403953552
      ],
      "min": [
        -0.9999989867210388,
        -1.0,
        -0.9999819397926331
      ],
      "type": "VEC3"
    },
    {
      "bufferView": 1,
      "componentType": 5126,
      "count": 1492,
      "max": [
        0.0,
        0.0
      ],
      "min": [
        0.0,
        0.0
      ],
      "type": "VEC2"
    },
    {
      "bufferView": 0,
      "componentType": 5125,
      "count": 4422,
      "type": "SCALAR"
    }
  ],
  "asset": {
    "extras": {
      "author": "standout7 (https://sketchfab.com/standout7)",
      "license": "CC-BY-4.0 (http://creativecommons.org/licenses/by/4.0/)",
      "source": "https://sketchfab.com/3d-models/apple-logo-dc39f733d8d84f5c86e4b6c1270e9c50",
      "title": "apple logo"
    },
    "generator": "Sketchfab-15.13.0",
    "version": "2.0"
  },
  "bufferViews": [
    {
      "buffer": 0,
      "byteLength": 17688,
      "name": "floatBufferViews",
      "target": 34963
    },
    {
      "buffer": 0,
      "byteLength": 11936,
      "byteOffset": 17688,
      "byteStride": 8,
      "name": "floatBufferViews",
      "target": 34962
    },
    {
      "buffer": 0,
      "byteLength": 35808,
      "byteOffset": 29624,
      "byteStride": 12,
      "name": "floatBufferViews",
      "target": 34962
    }
  ],
  "buffers": [
    {
      "byteLength": 65432,
      "uri": "scene.bin"
    }
  ],
  "materials": [
    {
      "doubleSided": true,
      "name": "SVGMat.001",
      "pbrMetallicRoughness": {
        "baseColorFactor": [
          0.476989,
          0.476989,
          0.476989,
          1.0
        ],
        "roughnessFactor": 0.271654
      }
    }
  ],
  "meshes": [
    {
      "name": "Object_0",
      "primitives": [
        {
          "attributes": {
            "NORMAL": 1,
            "POSITION": 0,
            "TEXCOORD_0": 2
          },
          "indices": 3,
          "material": 0,
          "mode": 4
        }
      ]
    }
  ],
  "nodes": [
    {
      "children": [
        1
      ],
      "matrix": [
        1.0,
        0.0,
        0.0,
        0.0,
        0.0,
        2.220446049250313e-16,
        -1.0,
        0.0,
        0.0,
        1.0,
        2.220446049250313e-16,
        0.0,
        0.0,
        0.0,
        0.0,
        1.0
      ],
      "name": "Sketchfab_model"
    },
    {
      "children": [
        2
      ],
      "name": "root"
    },
    {
      "children": [
        3
      ],
      "matrix": [
        1.0,
        0.0,
        0.0,
        0.0,
        0.0,
        2.220446049250313e-16,
        1.0,
        0.0,
        0.0,
        -1.0,
        2.220446049250313e-16,
        0.0,
        0.0,
        0.0,
        0.0,
        1.0
      ],
      "name": "GLTF_SceneRootNode"
    },
    {
      "children": [
        4
      ],
      "matrix": [
        1.0,
        0.0,
        0.0,
        0.0,
        0.0,
        0.0,
        1.0,
        0.0,
        0.0,
        -1.0,
        0.0,
        0.0,
        0.0,
        0.17040854692459106,
        0.0,
        1.0
      ],
      "name": "Curve_1"
    },
    {
      "mesh": 0,
      "name": "Object_4"
    }
  ],
  "scene": 0,
  "scenes": [
    {
      "name": "Sketchfab_Scene",
      "nodes": [
        0
      ]
    }
  ]
}
